<svg width="22" height="22" viewBox="0 0 22 22" fill="none" xmlns="http://www.w3.org/2000/svg">
<path d="M20.1668 11C20.1668 16.0626 16.0628 20.1667 11.0002 20.1667M20.1668 11C20.1668 5.93739 16.0628 1.83334 11.0002 1.83334M20.1668 11H1.8335M11.0002 20.1667C5.93755 20.1667 1.8335 16.0626 1.8335 11M11.0002 20.1667C13.293 17.6565 14.596 14.399 14.6668 11C14.596 7.60103 13.293 4.34349 11.0002 1.83334M11.0002 20.1667C8.70732 17.6565 7.40431 14.399 7.3335 11C7.40431 7.60103 8.70732 4.34349 11.0002 1.83334M1.8335 11C1.8335 5.93739 5.93755 1.83334 11.0002 1.83334" stroke="#1E1E1E" stroke-width="1.5" stroke-linecap="round" stroke-linejoin="round"/>
</svg>
